PathFileType	4	(X/Y/Z)	s04c0402.trc
DataRate	CameraRate	NumFrames	NumMarkers	Units	OrigDataRate	OrigDataStartFrame	OrigNumFrames
200	200	6	50	mm	200	1250	2000
Frame#	Time	racr			lacr			c7			jug			rlel			rdr			llel			ldr			s2			lic			ric			lasi			rasi			rpsi			lpsi			rgt			lgt			rth1			rth2			rth3			rth4			rlfc			rmfc			rsh1			rsh2			rsh3			rsh4			rlmal			rmmal			rcal			rtoe			rmt5			lth1			lth2			lth4			lth3			llfc			lmfc			lsh1			lsh2			lsh3			lsh4			llmal			lmmal			lcal			ltoe			lmt5			SBIKE			LBIKE			RBIKE			
		X1	Y1	Z1	X2	Y2	Z2	X3	Y3	Z3	X4	Y4	Z4	X5	Y5	Z5	X6	Y6	Z6	X7	Y7	Z7	X8	Y8	Z8	X9	Y9	Z9	X10	Y10	Z10	X11	Y11	Z11	X12	Y12	Z12	X13	Y13	Z13	X14	Y14	Z14	X15	Y15	Z15	X16	Y16	Z16	X17	Y17	Z17	X18	Y18	Z18	X19	Y19	Z19	X20	Y20	Z20	X21	Y21	Z21	X22	Y22	Z22	X23	Y23	Z23	X24	Y24	Z24	X25	Y25	Z25	X26	Y26	Z26	X27	Y27	Z27	X28	Y28	Z28	X29	Y29	Z29	X30	Y30	Z30	X31	Y31	Z31	X32	Y32	Z32	X33	Y33	Z33	X34	Y34	Z34	X35	Y35	Z35	X36	Y36	Z36	X37	Y37	Z37	X38	Y38	Z38	X39	Y39	Z39	X40	Y40	Z40	X41	Y41	Z41	X42	Y42	Z42	X43	Y43	Z43	X44	Y44	Z44	X45	Y45	Z45	X46	Y46	Z46	X47	Y47	Z47	X48	Y48	Z48	X49	Y49	Z49	X50	Y50	Z50	
1250	6.2500	836.135636	1266.324881	-163.531383	845.588771	1162.519199	-458.416232	863.964660	1308.217952	-330.759047	775.361856	1175.908480	-306.638900	564.891565	1170.299777	0.429675	698.766955	940.517528	-85.110481	605.348266	1128.633488	-652.832004	683.764627	940.019543	-496.947840	257.754656	1289.667391	-250.862547	378.699855	1258.319522	-425.905308	427.677763	1246.478311	-106.442444	412.923735	1208.659595	-392.433328	443.927265	1180.281070	-152.029793	307.574285	1317.577846	-214.877565	293.479206	1328.465461	-285.182730	357.277601	1195.914582	-85.159491	339.179291	1189.536912	-449.082506	372.499843	1026.981138	-64.461680	394.507787	941.960430	-73.083923	374.517189	859.023147	-78.969467	428.206879	944.328023	-89.128578	368.941265	712.613118	-106.420933	339.755297	703.288376	-218.265608	282.302765	619.308899	-79.200200	245.244609	537.590257	-96.291495	173.516044	489.845101	-103.266457	271.289591	521.080763	-119.906178	87.253968	360.761543	-109.751730	110.460884	359.165292	-194.777959	20.197754	379.502788	-149.918774	227.101382	157.260529	-166.703254	165.293805	183.755824	-106.949846	388.434143	1116.625749	-451.243421	464.766941	1074.367432	-453.210387	489.198113	1100.028816	-443.922999	510.062930	998.539153	-457.364825	607.230114	872.465907	-438.975045	630.463227	842.119629	-326.735308	544.351015	777.433736	-464.750944	499.922262	703.910810	-447.723241	422.880155	658.783071	-448.310549	520.027380	686.684237	-418.986128	312.734994	559.106536	-446.599021	317.469524	564.684674	-356.145197	228.051591	573.412906	-406.945768	487.318531	418.333191	-414.797552	408.293830	421.987366	-477.288782	-185.222419	933.146189	-286.560389	-17.609082	79.403280	-485.385099	-17.499587	79.508878	-84.761317	
1251	6.2550	835.706847	1266.720477	-163.148163	844.986223	1162.240162	-457.606716	863.791482	1307.828904	-330.585306	774.746018	1175.920274	-305.962655	564.704445	1170.393153	0.612813	698.691065	940.699048	-85.441057	605.960755	1128.865880	-653.302667	683.746424	939.913944	-496.787734	258.518061	1292.164248	-253.404656	379.626987	1258.518660	-427.179048	427.056798	1248.933616	-107.794004	413.328872	1208.816478	-393.267531	443.694239	1182.263620	-152.387647	309.157544	1318.682515	-218.483414	294.514495	1330.035061	-288.065572	357.380540	1199.012405	-86.313520	339.157710	1190.242233	-450.083799	375.928847	1029.201695	-66.144513	400.785448	944.784051	-75.011955	383.559570	861.047365	-80.848954	434.125760	948.271335	-91.433209	379.946932	714.762664	-106.599328	351.318333	705.423597	-218.470149	289.613272	624.158075	-79.669185	250.135717	543.582404	-96.992665	176.870515	498.259746	-104.483376	275.744705	526.403606	-120.418497	86.135722	371.621085	-111.241036	110.651454	369.083318	-196.385782	20.360762	392.015860	-153.309911	219.578401	161.699283	-165.296453	158.279015	191.827478	-107.172695	387.188280	1115.535303	-452.170550	462.468494	1071.719517	-453.970259	487.447227	1096.865295	-444.901891	506.215352	994.801331	-457.481799	601.245378	866.445847	-438.394810	624.189691	836.451770	-326.589277	540.378261	768.469384	-464.736886	497.079339	694.529405	-447.231489	420.983770	648.003927	-448.170443	517.354523	677.948851	-418.116065	312.747203	547.026460	-447.035174	314.480944	552.294520	-355.521789	227.499409	558.042138	-407.380569	493.661789	415.082185	-415.603542	414.173271	414.299097	-477.649777	-185.108544	933.172845	-286.786641	-17.615462	79.380096	-485.390160	-17.473331	79.546320	-84.782172	
1252	6.2600	835.325291	1267.131730	-162.551249	844.436537	1162.637285	-456.878895	864.164430	1307.943124	-329.935980	774.042270	1176.746721	-305.482633	564.529683	1170.426059	0.985414	698.661651	940.870830	-85.682304	606.478044	1129.196736	-653.574820	683.764582	939.811935	-496.426313	259.319680	1294.212931	-255.813087	380.489590	1258.511145	-428.543702	426.526520	1251.170057	-109.043966	413.785668	1208.771707	-394.128827	443.485114	1183.909187	-152.952716	309.850886	1320.362555	-220.918702	295.464502	1331.517212	-290.318149	358.310172	1201.903275	-87.241212	339.040350	1190.618451	-450.993397	379.714487	1031.500746	-68.185366	407.409435	947.938541	-77.027517	393.139962	863.720655	-81.844743	440.325883	952.578670	-93.980561	391.011596	717.027957	-106.844769	363.068366	707.622235	-218.812406	297.175370	629.243658	-80.393975	255.355265	549.854023	-97.924063	180.748596	506.937905	-105.827018	280.581621	531.901014	-121.104977	85.674531	382.016301	-113.228812	111.759784	378.904438	-197.957790	21.513932	404.833370	-156.570452	212.722525	166.825614	-163.816102	151.741056	200.491841	-107.600204	385.931303	1114.109813	-453.223398	459.811528	1068.896643	-455.063206	485.711183	1093.274385	-445.900732	501.651561	990.634566	-458.047995	594.751661	859.816721	-438.007204	617.440012	830.351820	-326.624144	535.893162	759.488324	-464.492035	493.986349	684.920605	-446.655487	419.006034	636.708086	-447.885951	514.393702	668.870410	-417.019188	312.915444	534.405041	-447.486793	311.608235	538.524426	-355.816820	227.389978	542.199821	-407.810109	498.942599	410.004991	-415.852741	419.451831	405.723873	-477.406228	-184.990598	933.230013	-287.050120	-17.593433	79.358209	-485.433634	-17.482025	79.602130	-84.817152	
1253	6.2650	835.084547	1267.612735	-161.583100	843.916857	1163.441126	-456.345485	864.566210	1308.193341	-329.001047	773.380851	1177.716792	-304.694298	564.353970	1170.397327	1.533176	699.009290	941.282418	-85.781237	606.867412	1129.620491	-653.598689	683.779689	939.728080	-495.879277	260.028174	1295.969103	-258.187089	381.273170	1258.314482	-429.857888	426.030081	1252.995812	-110.462459	414.287218	1208.505399	-395.016074	443.321591	1185.299379	-153.729353	310.579862	1321.770822	-223.357326	296.170929	1332.827586	-292.397942	358.558183	1204.360832	-88.561159	338.714230	1190.480850	-451.923303	383.845716	1034.116152	-70.321983	414.241165	951.387856	-79.201912	402.809307	866.679077	-83.016964	446.641186	956.947907	-96.719841	401.788962	719.555202	-107.095627	374.741738	709.877940	-219.306309	304.927259	634.285597	-81.233869	260.815378	556.089258	-98.865209	184.938185	515.513528	-107.282923	285.767690	537.344446	-121.728758	86.612780	392.675102	-115.078328	113.708475	388.576038	-199.576779	23.543471	417.372465	-159.613134	206.348884	171.894962	-162.401763	145.920637	208.863505	-107.990158	384.602703	1112.404449	-454.282927	457.637781	1065.496591	-455.818541	483.948338	1089.387900	-446.985384	498.002924	986.294549	-458.217231	587.893464	852.885978	-437.870692	610.404302	823.893512	-326.899307	531.015356	750.555928	-464.039026	490.940921	675.191230	-446.371099	416.997565	625.097005	-447.591781	511.348026	659.846751	-415.988679	313.148130	521.900381	-447.943062	309.247590	524.031019	-356.983320	227.924927	526.068821	-408.234052	503.642228	404.083635	-415.976674	424.442132	397.021335	-477.573274	-184.854537	933.297847	-287.392810	-17.584474	79.325933	-485.468400	-17.454768	79.634474	-84.854769	
1254	6.2700	835.034103	1268.150819	-160.389071	843.482765	1164.799556	-455.966493	864.999158	1308.686370	-327.872191	772.848826	1178.863469	-303.761211	564.175019	1170.306839	2.265427	698.576459	941.171330	-85.928486	607.097896	1130.052910	-653.319659	683.755217	939.612982	-495.134110	260.643025	1297.263128	-260.348946	381.974471	1257.688545	-431.251168	425.611881	1254.565526	-111.922114	414.826561	1207.997797	-395.928040	443.209559	1186.452628	-154.598170	310.298151	1323.789755	-225.459990	296.811008	1333.549107	-294.320560	359.021401	1206.379098	-89.988346	338.220435	1189.809296	-452.735077	388.246149	1036.658229	-72.593662	421.127045	954.904844	-81.469298	412.426852	869.912596	-84.261759	453.002463	961.383888	-99.571534	412.117980	722.340281	-107.367815	386.043634	712.306627	-219.923550	312.721259	639.247771	-82.013469	266.586519	562.216722	-99.791315	189.602434	523.903744	-108.728353	291.189235	542.834629	-122.527206	88.411559	402.784826	-117.295759	115.278460	398.778158	-200.851181	26.223420	429.683867	-162.417060	200.495284	177.893654	-161.551759	140.616101	217.271300	-108.275735	383.181882	1110.405667	-455.339460	455.361067	1061.890442	-456.659721	481.996641	1085.383818	-448.220347	493.985660	982.036890	-458.871668	581.112898	846.377568	-438.535751	603.389270	817.215439	-327.494290	525.980960	741.574123	-463.735412	487.609244	665.268014	-446.040278	415.069493	613.382801	-447.470186	508.356403	650.675862	-415.496517	313.791446	508.792017	-448.174697	308.186161	508.666749	-358.968325	228.041122	510.897595	-408.699614	507.817365	397.472840	-416.065178	428.936491	387.847919	-477.686962	-184.708380	933.345930	-287.655538	-17.552236	79.293044	-485.496428	-17.472597	79.738723	-84.923587	
1255	6.2750	835.034296	1268.581028	-158.971981	843.169163	1166.545603	-455.740429	865.410994	1309.249322	-326.671551	772.407019	1180.001013	-302.808108	564.086144	1170.198146	3.097592	698.529184	941.268846	-85.934471	607.076660	1130.550021	-652.774628	683.765437	939.535355	-494.550096	261.104290	1298.007892	-262.332108	382.578966	1257.050317	-432.669115	425.220797	1255.813560	-113.392769	415.396703	1207.229262	-396.863494	443.181225	1187.482487	-155.612256	310.874425	1325.115277	-228.145249	297.410788	1333.776527	-296.543259	359.451316	1207.973951	-91.411833	337.463703	1188.551278	-453.494545	392.852436	1039.029813	-74.991013	427.954247	958.562496	-83.802652	421.850782	873.388793	-85.602846	459.288229	965.789571	-102.438827	421.779025	725.146717	-107.695524	396.837283	714.748655	-220.611624	320.430737	644.031173	-82.765540	272.384743	568.045132	-100.954806	194.659062	531.784017	-109.906887	296.771521	547.981417	-123.556131	90.222333	413.113661	-118.962364	118.407346	407.292341	-202.773862	29.247141	441.678764	-165.037778	195.173611	184.265610	-160.568303	136.143594	226.043425	-108.341195	381.672267	1108.141345	-456.453958	452.939497	1058.168739	-457.589216	480.029483	1081.187838	-449.391266	489.885105	977.583328	-459.455694	574.605037	838.564642	-438.154433	596.554322	810.391925	-328.309365	520.776607	732.639553	-464.121182	484.230166	655.247524	-445.878178	413.139062	601.546133	-447.102564	505.231743	641.452411	-414.927082	314.384288	496.075207	-448.419142	307.160921	493.816861	-361.993061	228.711612	495.872465	-408.783343	511.307928	390.055854	-416.147386	432.813215	378.310213	-477.777811	-184.617662	933.321925	-287.858997	-17.524660	79.244776	-485.522556	-17.442077	79.732622	-84.953271	
